<svg width="111" height="206" viewBox="0 0 111 206" fill="none" xmlns="http://www.w3.org/2000/svg">
<path d="M39.6754 131.592V131.448C39.6754 127.872 36.6754 125.856 32.2834 125.856H28.7794C25.8994 125.856 25.0354 126.888 25.0354 129.648V141.384C25.0354 144.144 25.8994 145.176 28.7794 145.176H32.9554C37.2274 145.176 40.3954 143.664 40.3954 139.584V139.56C40.3954 137.688 39.4594 136.104 37.3954 135.288C38.9314 134.424 39.6754 133.08 39.6754 131.592ZM33.2434 137.472C34.8274 137.472 35.5234 138.336 35.5234 139.2V139.368C35.5234 140.232 34.8274 141.096 33.2434 141.096H30.6034C30.0514 141.096 29.9074 140.976 29.9074 140.4V137.472H33.2434ZM30.6034 129.936H32.5234C34.1074 129.936 34.8034 130.8 34.8034 131.664V131.832C34.8034 132.648 34.1074 133.56 32.5234 133.56H29.9074V130.632C29.9074 130.056 30.0514 129.936 30.6034 129.936ZM41.9174 138.984C41.9174 144.144 45.6854 145.632 48.8774 145.632C52.0694 145.632 55.8374 144.144 55.8374 138.984V136.776C55.8374 131.616 52.0694 130.128 48.8774 130.128C45.6134 130.128 41.9174 131.616 41.9174 136.776V138.984ZM51.0134 139.2C51.0134 140.904 49.9094 141.576 48.8774 141.576C47.8454 141.576 46.7414 140.904 46.7414 139.2V136.56C46.7414 134.856 47.8454 134.184 48.8774 134.184C49.9094 134.184 51.0134 134.856 51.0134 136.56V139.2ZM57.7749 138.984C57.7749 144.144 61.5429 145.632 64.7349 145.632C67.9269 145.632 71.6949 144.144 71.6949 138.984V136.776C71.6949 131.616 67.9269 130.128 64.7349 130.128C61.4709 130.128 57.7749 131.616 57.7749 136.776V138.984ZM66.8709 139.2C66.8709 140.904 65.7669 141.576 64.7349 141.576C63.7029 141.576 62.5989 140.904 62.5989 139.2V136.56C62.5989 134.856 63.7029 134.184 64.7349 134.184C65.7669 134.184 66.8709 134.856 66.8709 136.56V139.2ZM73.8724 145.176H78.6724V141.432L80.1124 140.04L83.2324 145.176H88.6564L83.3524 136.944L86.5204 133.896C87.4084 133.056 87.2644 131.352 86.2564 130.584C85.2484 129.816 83.7364 130.056 82.9204 130.968L78.6724 135.648V127.296C78.6724 125.712 77.5444 124.896 76.2964 124.896C75.0484 124.896 73.8724 125.712 73.8724 127.296V145.176Z" fill="#C87B7B"/>
<path d="M37.3348 130.433V130.289C37.3348 126.713 34.3348 124.697 29.9428 124.697H26.4388C23.5588 124.697 22.6948 125.729 22.6948 128.489V140.225C22.6948 142.985 23.5588 144.017 26.4388 144.017H30.6148C34.8868 144.017 38.0548 142.505 38.0548 138.425V138.401C38.0548 136.529 37.1188 134.945 35.0548 134.129C36.5908 133.265 37.3348 131.921 37.3348 130.433ZM30.9028 136.313C32.4868 136.313 33.1828 137.177 33.1828 138.041V138.209C33.1828 139.073 32.4868 139.937 30.9028 139.937H28.2628C27.7108 139.937 27.5668 139.817 27.5668 139.241V136.313H30.9028ZM28.2628 128.777H30.1828C31.7668 128.777 32.4628 129.641 32.4628 130.505V130.673C32.4628 131.489 31.7668 132.401 30.1828 132.401H27.5668V129.473C27.5668 128.897 27.7108 128.777 28.2628 128.777ZM39.5768 137.825C39.5768 142.985 43.3448 144.473 46.5368 144.473C49.7288 144.473 53.4968 142.985 53.4968 137.825V135.617C53.4968 130.457 49.7288 128.969 46.5368 128.969C43.2728 128.969 39.5768 130.457 39.5768 135.617V137.825ZM48.6728 138.041C48.6728 139.745 47.5688 140.417 46.5368 140.417C45.5048 140.417 44.4008 139.745 44.4008 138.041V135.401C44.4008 133.697 45.5048 133.025 46.5368 133.025C47.5688 133.025 48.6728 133.697 48.6728 135.401V138.041ZM55.4343 137.825C55.4343 142.985 59.2023 144.473 62.3943 144.473C65.5863 144.473 69.3543 142.985 69.3543 137.825V135.617C69.3543 130.457 65.5863 128.969 62.3943 128.969C59.1303 128.969 55.4343 130.457 55.4343 135.617V137.825ZM64.5303 138.041C64.5303 139.745 63.4263 140.417 62.3943 140.417C61.3623 140.417 60.2583 139.745 60.2583 138.041V135.401C60.2583 133.697 61.3623 133.025 62.3943 133.025C63.4263 133.025 64.5303 133.697 64.5303 135.401V138.041ZM71.5318 144.017H76.3318V140.273L77.7718 138.881L80.8918 144.017H86.3158L81.0118 135.785L84.1798 132.737C85.0678 131.897 84.9238 130.193 83.9158 129.425C82.9078 128.657 81.3958 128.897 80.5798 129.809L76.3318 134.489V126.137C76.3318 124.553 75.2038 123.737 73.9558 123.737C72.7078 123.737 71.5318 124.553 71.5318 126.137V144.017Z" fill="#B71C1C"/>
<path d="M5.11719 15.4033C5.11719 9.88047 9.59434 5.40332 15.1172 5.40332H100.437C105.959 5.40332 110.437 9.88047 110.437 15.4033V111.24C110.437 116.763 105.959 121.24 100.437 121.24H15.1172C9.59434 121.24 5.11719 116.763 5.11719 111.24V15.4033Z" fill="#EBE4E5"/>
<path d="M0.436523 10.7698C0.436523 5.24698 4.91368 0.769836 10.4365 0.769836H95.7559C101.279 0.769836 105.756 5.24699 105.756 10.7698V106.606C105.756 112.129 101.279 116.606 95.7559 116.606H10.4365C4.91367 116.606 0.436523 112.129 0.436523 106.606V10.7698Z" fill="#FFCDD2"/>
<path d="M48.0312 39.2276C42.2712 39.2276 40.5432 41.2916 40.5432 46.8116V70.2836C40.5432 75.8036 42.2712 77.8676 48.0312 77.8676H55.1832C63.4872 77.8676 72.2232 73.4516 72.2232 60.1076V56.9876C72.2232 43.6436 63.4872 39.2276 55.1832 39.2276H48.0312ZM62.4312 60.8756C62.4312 66.4916 59.4072 69.5636 54.8952 69.5636H51.7272C50.6232 69.5636 50.3352 69.3236 50.3352 68.1716V48.9236C50.3352 47.7716 50.6232 47.5316 51.7272 47.5316H54.8952C59.4072 47.5316 62.4312 50.6036 62.4312 56.2196V60.8756Z" fill="#C87B7B"/>
<path d="M45.6911 36.9108C39.9311 36.9108 38.2031 38.9748 38.2031 44.4948V67.9668C38.2031 73.4868 39.9311 75.5508 45.6911 75.5508H52.8431C61.1471 75.5508 69.8831 71.1348 69.8831 57.7908V54.6708C69.8831 41.3268 61.1471 36.9108 52.8431 36.9108H45.6911ZM60.0911 58.5588C60.0911 64.1748 57.0671 67.2468 52.5551 67.2468H49.3871C48.2831 67.2468 47.9951 67.0068 47.9951 65.8548V46.6068C47.9951 45.4548 48.2831 45.2148 49.3871 45.2148H52.5551C57.0671 45.2148 60.0911 48.2868 60.0911 53.9028V58.5588Z" fill="#B71C1C"/>
<path fill-rule="evenodd" clip-rule="evenodd" d="M15.1172 154.833C9.59434 154.833 5.11719 159.31 5.11719 164.833V205.77L57.777 164.099L110.437 205.77V164.833C110.437 159.31 105.959 154.833 100.437 154.833H15.1172Z" fill="#EBE4E5"/>
<path fill-rule="evenodd" clip-rule="evenodd" d="M10.4365 151.357C4.91368 151.357 0.436523 155.835 0.436523 161.357V202.295L53.0963 160.624L105.756 202.295V161.357C105.756 155.835 101.279 151.357 95.7559 151.357H10.4365Z" fill="#FFCDD2"/>
</svg>
